<mxfile host="app.diagrams.net" modified="2023-11-10T20:54:10.477Z" agent="Mozilla/5.0 (Windows NT 10.0; Win64; x64) AppleWebKit/537.36 (KHTML, like Gecko) Chrome/119.0.0.0 Safari/537.36" etag="sC2YIHmIN0G8sZ_LQkPg" version="22.1.0" type="device">
  <diagram name="Page-1" id="13e1069c-82ec-6db2-03f1-153e76fe0fe0">
    <mxGraphModel dx="1434" dy="1618" grid="1" gridSize="10" guides="1" tooltips="1" connect="1" arrows="1" fold="1" page="1" pageScale="1" pageWidth="1100" pageHeight="850" background="none" math="0" shadow="0">
      <root>
        <mxCell id="0" />
        <mxCell id="1" parent="0" />
        <mxCell id="7baba1c4bc27f4b0-3" value="UDP Service" style="shape=umlLifeline;perimeter=lifelinePerimeter;whiteSpace=wrap;html=1;container=1;collapsible=0;recursiveResize=0;outlineConnect=0;rounded=1;shadow=0;comic=0;labelBackgroundColor=none;strokeWidth=1;fontFamily=Verdana;fontSize=12;align=center;" parent="1" vertex="1">
          <mxGeometry x="540" y="39" width="100" height="711" as="geometry" />
        </mxCell>
        <mxCell id="B6f6p23vNXwquG-S3XL--16" value="3.3 return result" style="html=1;verticalAlign=bottom;endArrow=open;dashed=1;endSize=8;labelBackgroundColor=none;fontFamily=Verdana;fontSize=12;edgeStyle=elbowEdgeStyle;elbow=vertical;exitX=0.3;exitY=0.965;exitDx=0;exitDy=0;exitPerimeter=0;" parent="7baba1c4bc27f4b0-3" source="7baba1c4bc27f4b0-10" edge="1">
          <mxGeometry relative="1" as="geometry">
            <mxPoint x="-403" y="273" as="targetPoint" />
            <Array as="points" />
            <mxPoint x="247" y="273" as="sourcePoint" />
          </mxGeometry>
        </mxCell>
        <mxCell id="7baba1c4bc27f4b0-37" value="" style="html=1;points=[];perimeter=orthogonalPerimeter;rounded=0;shadow=0;comic=0;labelBackgroundColor=none;strokeWidth=1;fontFamily=Verdana;fontSize=12;align=center;" parent="7baba1c4bc27f4b0-3" vertex="1">
          <mxGeometry x="45" y="321" width="10" height="49" as="geometry" />
        </mxCell>
        <mxCell id="B6f6p23vNXwquG-S3XL--19" value="4.1 return result" style="html=1;verticalAlign=bottom;endArrow=open;dashed=1;endSize=8;labelBackgroundColor=none;fontFamily=Verdana;fontSize=12;edgeStyle=elbowEdgeStyle;elbow=vertical;" parent="7baba1c4bc27f4b0-3" edge="1">
          <mxGeometry relative="1" as="geometry">
            <mxPoint x="-403.5" y="361" as="targetPoint" />
            <Array as="points" />
            <mxPoint x="44" y="361" as="sourcePoint" />
          </mxGeometry>
        </mxCell>
        <mxCell id="B6f6p23vNXwquG-S3XL--27" value="" style="html=1;points=[];perimeter=orthogonalPerimeter;rounded=0;shadow=0;comic=0;labelBackgroundColor=none;strokeWidth=1;fontFamily=Verdana;fontSize=12;align=center;" parent="7baba1c4bc27f4b0-3" vertex="1">
          <mxGeometry x="45" y="503" width="10" height="49" as="geometry" />
        </mxCell>
        <mxCell id="3alQSPVyIv8DFUK-0bdn-7" value="" style="html=1;points=[];perimeter=orthogonalPerimeter;rounded=0;shadow=0;comic=0;labelBackgroundColor=none;strokeWidth=1;fontFamily=Verdana;fontSize=12;align=center;" parent="7baba1c4bc27f4b0-3" vertex="1">
          <mxGeometry x="45" y="625" width="10" height="49" as="geometry" />
        </mxCell>
        <mxCell id="3alQSPVyIv8DFUK-0bdn-8" value="" style="endArrow=classic;html=1;rounded=0;entryX=1.3;entryY=0.571;entryDx=0;entryDy=0;entryPerimeter=0;" parent="7baba1c4bc27f4b0-3" edge="1">
          <mxGeometry width="50" height="50" relative="1" as="geometry">
            <mxPoint x="56" y="651" as="sourcePoint" />
            <mxPoint x="56" y="348.97900000000004" as="targetPoint" />
            <Array as="points">
              <mxPoint x="98" y="651" />
              <mxPoint x="98" y="349" />
            </Array>
          </mxGeometry>
        </mxCell>
        <mxCell id="7baba1c4bc27f4b0-5" value="UDP Data Repository" style="shape=umlLifeline;perimeter=lifelinePerimeter;whiteSpace=wrap;html=1;container=1;collapsible=0;recursiveResize=0;outlineConnect=0;rounded=1;shadow=0;comic=0;labelBackgroundColor=none;strokeWidth=1;fontFamily=Verdana;fontSize=12;align=center;" parent="1" vertex="1">
          <mxGeometry x="960" y="39" width="100" height="711" as="geometry" />
        </mxCell>
        <mxCell id="7baba1c4bc27f4b0-13" value="" style="html=1;points=[];perimeter=orthogonalPerimeter;rounded=0;shadow=0;comic=0;labelBackgroundColor=none;strokeWidth=1;fontFamily=Verdana;fontSize=12;align=center;" parent="7baba1c4bc27f4b0-5" vertex="1">
          <mxGeometry x="45" y="80" width="10" height="200" as="geometry" />
        </mxCell>
        <mxCell id="B6f6p23vNXwquG-S3XL--23" value="" style="html=1;points=[];perimeter=orthogonalPerimeter;rounded=0;shadow=0;comic=0;labelBackgroundColor=none;strokeWidth=1;fontFamily=Verdana;fontSize=12;align=center;" parent="7baba1c4bc27f4b0-5" vertex="1">
          <mxGeometry x="45" y="443" width="10" height="56" as="geometry" />
        </mxCell>
        <mxCell id="7baba1c4bc27f4b0-2" value="Crypto Service" style="shape=umlLifeline;perimeter=lifelinePerimeter;whiteSpace=wrap;html=1;container=1;collapsible=0;recursiveResize=0;outlineConnect=0;rounded=1;shadow=0;comic=0;labelBackgroundColor=none;strokeWidth=1;fontFamily=Verdana;fontSize=12;align=center;" parent="1" vertex="1">
          <mxGeometry x="310" y="39" width="100" height="711" as="geometry" />
        </mxCell>
        <mxCell id="B6f6p23vNXwquG-S3XL--8" value="2 LoadUDPMessagesByDateRange()" style="html=1;verticalAlign=bottom;endArrow=block;entryX=0;entryY=0;labelBackgroundColor=none;fontFamily=Verdana;fontSize=12;edgeStyle=elbowEdgeStyle;elbow=vertical;" parent="7baba1c4bc27f4b0-2" edge="1">
          <mxGeometry relative="1" as="geometry">
            <mxPoint x="-173" y="167" as="sourcePoint" />
            <mxPoint x="487" y="167" as="targetPoint" />
          </mxGeometry>
        </mxCell>
        <mxCell id="B6f6p23vNXwquG-S3XL--12" value="3 DeleteSelectedUDPMessage()" style="html=1;verticalAlign=bottom;endArrow=block;entryX=0;entryY=0;labelBackgroundColor=none;fontFamily=Verdana;fontSize=12;edgeStyle=elbowEdgeStyle;elbow=vertical;" parent="7baba1c4bc27f4b0-2" edge="1">
          <mxGeometry relative="1" as="geometry">
            <mxPoint x="-173" y="241" as="sourcePoint" />
            <mxPoint x="487" y="241" as="targetPoint" />
          </mxGeometry>
        </mxCell>
        <mxCell id="7baba1c4bc27f4b0-28" value="" style="html=1;points=[];perimeter=orthogonalPerimeter;rounded=0;shadow=0;comic=0;labelBackgroundColor=none;strokeWidth=1;fontFamily=Verdana;fontSize=12;align=center;" parent="7baba1c4bc27f4b0-2" vertex="1">
          <mxGeometry x="45" y="383" width="10" height="49" as="geometry" />
        </mxCell>
        <mxCell id="B6f6p23vNXwquG-S3XL--21" value="4.4 SaveUDPMessage()" style="html=1;verticalAlign=bottom;endArrow=block;labelBackgroundColor=none;fontFamily=Verdana;fontSize=12;edgeStyle=elbowEdgeStyle;elbow=vertical;" parent="7baba1c4bc27f4b0-2" edge="1">
          <mxGeometry relative="1" as="geometry">
            <mxPoint x="-172" y="456" as="sourcePoint" />
            <mxPoint x="487" y="456" as="targetPoint" />
          </mxGeometry>
        </mxCell>
        <mxCell id="3alQSPVyIv8DFUK-0bdn-1" value="" style="html=1;points=[];perimeter=orthogonalPerimeter;rounded=0;shadow=0;comic=0;labelBackgroundColor=none;strokeWidth=1;fontFamily=Verdana;fontSize=12;align=center;" parent="7baba1c4bc27f4b0-2" vertex="1">
          <mxGeometry x="45" y="557" width="10" height="49" as="geometry" />
        </mxCell>
        <mxCell id="7baba1c4bc27f4b0-4" value="UDP Log Service" style="shape=umlLifeline;perimeter=lifelinePerimeter;whiteSpace=wrap;html=1;container=1;collapsible=0;recursiveResize=0;outlineConnect=0;rounded=1;shadow=0;comic=0;labelBackgroundColor=none;strokeWidth=1;fontFamily=Verdana;fontSize=12;align=center;" parent="1" vertex="1">
          <mxGeometry x="752" y="39" width="100" height="711" as="geometry" />
        </mxCell>
        <mxCell id="7baba1c4bc27f4b0-10" value="" style="html=1;points=[];perimeter=orthogonalPerimeter;rounded=0;shadow=0;comic=0;labelBackgroundColor=none;strokeWidth=1;fontFamily=Verdana;fontSize=12;align=center;" parent="7baba1c4bc27f4b0-4" vertex="1">
          <mxGeometry x="45" y="80" width="10" height="200" as="geometry" />
        </mxCell>
        <mxCell id="7baba1c4bc27f4b0-30" value="1.2 return items" style="html=1;verticalAlign=bottom;endArrow=open;dashed=1;endSize=8;labelBackgroundColor=none;fontFamily=Verdana;fontSize=12;edgeStyle=elbowEdgeStyle;elbow=vertical;" parent="7baba1c4bc27f4b0-4" edge="1">
          <mxGeometry relative="1" as="geometry">
            <mxPoint x="55" y="126" as="targetPoint" />
            <Array as="points" />
            <mxPoint x="250" y="126" as="sourcePoint" />
          </mxGeometry>
        </mxCell>
        <mxCell id="B6f6p23vNXwquG-S3XL--9" value="2.1 GetItemsByDateRange()" style="html=1;verticalAlign=bottom;endArrow=block;entryX=0;entryY=0;labelBackgroundColor=none;fontFamily=Verdana;fontSize=12;edgeStyle=elbowEdgeStyle;elbow=vertical;" parent="7baba1c4bc27f4b0-4" edge="1">
          <mxGeometry relative="1" as="geometry">
            <mxPoint x="55" y="167" as="sourcePoint" />
            <mxPoint x="253" y="167.00000000000023" as="targetPoint" />
          </mxGeometry>
        </mxCell>
        <mxCell id="B6f6p23vNXwquG-S3XL--13" value="3.1 DeleteItem()" style="html=1;verticalAlign=bottom;endArrow=block;entryX=0;entryY=0;labelBackgroundColor=none;fontFamily=Verdana;fontSize=12;edgeStyle=elbowEdgeStyle;elbow=vertical;" parent="7baba1c4bc27f4b0-4" edge="1">
          <mxGeometry relative="1" as="geometry">
            <mxPoint x="55" y="241" as="sourcePoint" />
            <mxPoint x="253" y="241.00000000000023" as="targetPoint" />
          </mxGeometry>
        </mxCell>
        <mxCell id="B6f6p23vNXwquG-S3XL--14" value="3.2 return result" style="html=1;verticalAlign=bottom;endArrow=open;dashed=1;endSize=8;labelBackgroundColor=none;fontFamily=Verdana;fontSize=12;edgeStyle=elbowEdgeStyle;elbow=vertical;" parent="7baba1c4bc27f4b0-4" edge="1">
          <mxGeometry relative="1" as="geometry">
            <mxPoint x="55" y="273" as="targetPoint" />
            <Array as="points" />
            <mxPoint x="251" y="273" as="sourcePoint" />
          </mxGeometry>
        </mxCell>
        <mxCell id="B6f6p23vNXwquG-S3XL--22" value="" style="html=1;points=[];perimeter=orthogonalPerimeter;rounded=0;shadow=0;comic=0;labelBackgroundColor=none;strokeWidth=1;fontFamily=Verdana;fontSize=12;align=center;" parent="7baba1c4bc27f4b0-4" vertex="1">
          <mxGeometry x="45" y="445" width="10" height="55" as="geometry" />
        </mxCell>
        <mxCell id="B6f6p23vNXwquG-S3XL--24" value="4.5 SaveItem()" style="html=1;verticalAlign=bottom;endArrow=block;entryX=0;entryY=0;labelBackgroundColor=none;fontFamily=Verdana;fontSize=12;edgeStyle=elbowEdgeStyle;elbow=vertical;" parent="7baba1c4bc27f4b0-4" edge="1">
          <mxGeometry relative="1" as="geometry">
            <mxPoint x="55" y="457" as="sourcePoint" />
            <mxPoint x="253" y="457.0000000000002" as="targetPoint" />
          </mxGeometry>
        </mxCell>
        <mxCell id="B6f6p23vNXwquG-S3XL--25" value="4.6 return result" style="html=1;verticalAlign=bottom;endArrow=open;dashed=1;endSize=8;labelBackgroundColor=none;fontFamily=Verdana;fontSize=12;edgeStyle=elbowEdgeStyle;elbow=vertical;" parent="7baba1c4bc27f4b0-4" edge="1">
          <mxGeometry relative="1" as="geometry">
            <mxPoint x="55" y="490" as="targetPoint" />
            <Array as="points" />
            <mxPoint x="252" y="490" as="sourcePoint" />
          </mxGeometry>
        </mxCell>
        <mxCell id="7baba1c4bc27f4b0-8" value="Presentation Layer(UI)" style="shape=umlLifeline;perimeter=lifelinePerimeter;whiteSpace=wrap;html=1;container=1;collapsible=0;recursiveResize=0;outlineConnect=0;rounded=1;shadow=0;comic=0;labelBackgroundColor=none;strokeWidth=1;fontFamily=Verdana;fontSize=12;align=center;" parent="1" vertex="1">
          <mxGeometry x="82" y="39" width="100" height="710" as="geometry" />
        </mxCell>
        <mxCell id="7baba1c4bc27f4b0-9" value="" style="html=1;points=[];perimeter=orthogonalPerimeter;rounded=0;shadow=0;comic=0;labelBackgroundColor=none;strokeWidth=1;fontFamily=Verdana;fontSize=12;align=center;" parent="7baba1c4bc27f4b0-8" vertex="1">
          <mxGeometry x="45" y="80" width="10" height="630" as="geometry" />
        </mxCell>
        <mxCell id="B6f6p23vNXwquG-S3XL--17" value="" style="endArrow=open;endFill=1;endSize=12;html=1;rounded=0;jumpSize=6;" parent="7baba1c4bc27f4b0-8" edge="1">
          <mxGeometry width="160" relative="1" as="geometry">
            <mxPoint x="56" y="329" as="sourcePoint" />
            <mxPoint x="503" y="329" as="targetPoint" />
          </mxGeometry>
        </mxCell>
        <mxCell id="B6f6p23vNXwquG-S3XL--18" value="4 StartToListenUDP()" style="edgeLabel;html=1;align=center;verticalAlign=middle;resizable=0;points=[];fontSize=12;" parent="B6f6p23vNXwquG-S3XL--17" vertex="1" connectable="0">
          <mxGeometry x="-0.0125" y="9" relative="1" as="geometry">
            <mxPoint as="offset" />
          </mxGeometry>
        </mxCell>
        <mxCell id="7baba1c4bc27f4b0-11" value="1 LoadUDPMessages()" style="html=1;verticalAlign=bottom;endArrow=block;entryX=0;entryY=0;labelBackgroundColor=none;fontFamily=Verdana;fontSize=12;edgeStyle=elbowEdgeStyle;elbow=vertical;align=center;horizontal=1;" parent="1" edge="1">
          <mxGeometry relative="1" as="geometry">
            <mxPoint x="137" y="131" as="sourcePoint" />
            <mxPoint x="797" y="131" as="targetPoint" />
          </mxGeometry>
        </mxCell>
        <mxCell id="7baba1c4bc27f4b0-14" value="1.1 GetAllItems()" style="html=1;verticalAlign=bottom;endArrow=block;entryX=0;entryY=0;labelBackgroundColor=none;fontFamily=Verdana;fontSize=12;edgeStyle=elbowEdgeStyle;elbow=vertical;" parent="1" edge="1">
          <mxGeometry relative="1" as="geometry">
            <mxPoint x="807" y="130" as="sourcePoint" />
            <mxPoint x="1005" y="130.00000000000023" as="targetPoint" />
          </mxGeometry>
        </mxCell>
        <mxCell id="B6f6p23vNXwquG-S3XL--3" value="" style="edgeStyle=orthogonalEdgeStyle;rounded=0;orthogonalLoop=1;jettySize=auto;html=1;" parent="1" source="B6f6p23vNXwquG-S3XL--1" target="7baba1c4bc27f4b0-9" edge="1">
          <mxGeometry relative="1" as="geometry" />
        </mxCell>
        <mxCell id="B6f6p23vNXwquG-S3XL--1" value="Actor" style="shape=umlActor;verticalLabelPosition=bottom;verticalAlign=top;html=1;outlineConnect=0;" parent="1" vertex="1">
          <mxGeometry x="20" y="140" width="40" height="80" as="geometry" />
        </mxCell>
        <mxCell id="B6f6p23vNXwquG-S3XL--7" value="1.3 return items" style="html=1;verticalAlign=bottom;endArrow=open;dashed=1;endSize=8;labelBackgroundColor=none;fontFamily=Verdana;fontSize=12;edgeStyle=elbowEdgeStyle;elbow=vertical;" parent="1" edge="1">
          <mxGeometry relative="1" as="geometry">
            <mxPoint x="137" y="165" as="targetPoint" />
            <Array as="points" />
            <mxPoint x="795" y="165" as="sourcePoint" />
          </mxGeometry>
        </mxCell>
        <mxCell id="B6f6p23vNXwquG-S3XL--10" value="2.2 return items" style="html=1;verticalAlign=bottom;endArrow=open;dashed=1;endSize=8;labelBackgroundColor=none;fontFamily=Verdana;fontSize=12;edgeStyle=elbowEdgeStyle;elbow=vertical;" parent="1" edge="1">
          <mxGeometry relative="1" as="geometry">
            <mxPoint x="807" y="239" as="targetPoint" />
            <Array as="points" />
            <mxPoint x="1002" y="239" as="sourcePoint" />
          </mxGeometry>
        </mxCell>
        <mxCell id="B6f6p23vNXwquG-S3XL--11" value="2.3 return items" style="html=1;verticalAlign=bottom;endArrow=open;dashed=1;endSize=8;labelBackgroundColor=none;fontFamily=Verdana;fontSize=12;edgeStyle=elbowEdgeStyle;elbow=vertical;" parent="1" edge="1">
          <mxGeometry relative="1" as="geometry">
            <mxPoint x="137" y="238" as="targetPoint" />
            <Array as="points" />
            <mxPoint x="795" y="238" as="sourcePoint" />
          </mxGeometry>
        </mxCell>
        <mxCell id="B6f6p23vNXwquG-S3XL--20" value="4.3 return result" style="html=1;verticalAlign=bottom;endArrow=open;dashed=1;endSize=8;labelBackgroundColor=none;fontFamily=Verdana;fontSize=12;edgeStyle=elbowEdgeStyle;elbow=vertical;" parent="1" edge="1">
          <mxGeometry relative="1" as="geometry">
            <mxPoint x="137" y="466" as="targetPoint" />
            <Array as="points" />
            <mxPoint x="351" y="466" as="sourcePoint" />
          </mxGeometry>
        </mxCell>
        <mxCell id="B6f6p23vNXwquG-S3XL--26" value="4.7 return result" style="html=1;verticalAlign=bottom;endArrow=open;dashed=1;endSize=8;labelBackgroundColor=none;fontFamily=Verdana;fontSize=12;edgeStyle=elbowEdgeStyle;elbow=horizontal;exitX=0.3;exitY=0.965;exitDx=0;exitDy=0;exitPerimeter=0;" parent="1" edge="1">
          <mxGeometry relative="1" as="geometry">
            <mxPoint x="137" y="529" as="targetPoint" />
            <Array as="points" />
            <mxPoint x="794" y="529" as="sourcePoint" />
          </mxGeometry>
        </mxCell>
        <mxCell id="B6f6p23vNXwquG-S3XL--28" value="" style="endArrow=open;endFill=1;endSize=12;html=1;rounded=0;jumpSize=6;" parent="1" edge="1">
          <mxGeometry width="160" relative="1" as="geometry">
            <mxPoint x="138" y="567" as="sourcePoint" />
            <mxPoint x="585" y="567" as="targetPoint" />
          </mxGeometry>
        </mxCell>
        <mxCell id="B6f6p23vNXwquG-S3XL--29" value="5 StopToListenUDP()" style="edgeLabel;html=1;align=center;verticalAlign=middle;resizable=0;points=[];fontSize=12;" parent="B6f6p23vNXwquG-S3XL--28" vertex="1" connectable="0">
          <mxGeometry x="-0.0125" y="9" relative="1" as="geometry">
            <mxPoint as="offset" />
          </mxGeometry>
        </mxCell>
        <mxCell id="3alQSPVyIv8DFUK-0bdn-2" value="6 EncryptMessage()" style="html=1;verticalAlign=bottom;endArrow=block;labelBackgroundColor=none;fontFamily=Verdana;fontSize=12;edgeStyle=elbowEdgeStyle;elbow=vertical;" parent="1" edge="1">
          <mxGeometry relative="1" as="geometry">
            <mxPoint x="138" y="604" as="sourcePoint" />
            <mxPoint x="355" y="604" as="targetPoint" />
          </mxGeometry>
        </mxCell>
        <mxCell id="3alQSPVyIv8DFUK-0bdn-3" value="4.2 DecryptMessage()" style="html=1;verticalAlign=bottom;endArrow=block;labelBackgroundColor=none;fontFamily=Verdana;fontSize=12;edgeStyle=elbowEdgeStyle;elbow=vertical;" parent="1" edge="1">
          <mxGeometry relative="1" as="geometry">
            <mxPoint x="138" y="432" as="sourcePoint" />
            <mxPoint x="355" y="432" as="targetPoint" />
          </mxGeometry>
        </mxCell>
        <mxCell id="3alQSPVyIv8DFUK-0bdn-4" value="6.1 return result" style="html=1;verticalAlign=bottom;endArrow=open;dashed=1;endSize=8;labelBackgroundColor=none;fontFamily=Verdana;fontSize=12;edgeStyle=elbowEdgeStyle;elbow=vertical;" parent="1" edge="1">
          <mxGeometry relative="1" as="geometry">
            <mxPoint x="137" y="639" as="targetPoint" />
            <Array as="points" />
            <mxPoint x="351" y="639" as="sourcePoint" />
          </mxGeometry>
        </mxCell>
        <mxCell id="3alQSPVyIv8DFUK-0bdn-5" value="" style="endArrow=open;endFill=1;endSize=12;html=1;rounded=0;jumpSize=6;" parent="1" edge="1">
          <mxGeometry width="160" relative="1" as="geometry">
            <mxPoint x="136.5" y="689" as="sourcePoint" />
            <mxPoint x="583.5" y="689" as="targetPoint" />
          </mxGeometry>
        </mxCell>
        <mxCell id="3alQSPVyIv8DFUK-0bdn-6" value="6.2 SendMessageToUDP()" style="edgeLabel;html=1;align=center;verticalAlign=middle;resizable=0;points=[];fontSize=12;" parent="3alQSPVyIv8DFUK-0bdn-5" vertex="1" connectable="0">
          <mxGeometry x="-0.0125" y="9" relative="1" as="geometry">
            <mxPoint as="offset" />
          </mxGeometry>
        </mxCell>
        <mxCell id="j-7jSGK0MfBz4vEBCa2I-14" value="UserInterface" style="html=1;align=center;verticalAlign=middle;rounded=1;absoluteArcSize=1;arcSize=10;dashed=0;whiteSpace=wrap;" vertex="1" parent="1">
          <mxGeometry x="80" y="-10" width="102" height="40" as="geometry" />
        </mxCell>
        <mxCell id="j-7jSGK0MfBz4vEBCa2I-15" value="Service" style="html=1;align=center;verticalAlign=middle;rounded=1;absoluteArcSize=1;arcSize=10;dashed=0;whiteSpace=wrap;" vertex="1" parent="1">
          <mxGeometry x="309" y="-10" width="541" height="40" as="geometry" />
        </mxCell>
        <mxCell id="j-7jSGK0MfBz4vEBCa2I-16" value="Data" style="html=1;align=center;verticalAlign=middle;rounded=1;absoluteArcSize=1;arcSize=10;dashed=0;whiteSpace=wrap;" vertex="1" parent="1">
          <mxGeometry x="958" y="-10" width="102" height="40" as="geometry" />
        </mxCell>
      </root>
    </mxGraphModel>
  </diagram>
</mxfile>
